<svg width="16" height="17" viewBox="0 0 16 17" fill="none" xmlns="http://www.w3.org/2000/svg">
<path fill-rule="evenodd" clip-rule="evenodd" d="M2.3335 8.50065C2.3335 5.37104 4.87055 2.83398 8.00016 2.83398C11.1298 2.83398 13.6668 5.37104 13.6668 8.50065C13.6668 11.6302 11.1298 14.1673 8.00016 14.1673C4.87055 14.1673 2.3335 11.6302 2.3335 8.50065ZM8.50016 5.16732C8.50016 4.89118 8.2763 4.66732 8.00016 4.66732C7.72403 4.66732 7.50016 4.89118 7.50016 5.16732V8.50065C7.50016 8.67305 7.58896 8.83325 7.73516 8.92465L9.73516 10.1747C9.96936 10.321 10.2778 10.2499 10.4242 10.0157C10.5705 9.78145 10.4994 9.47298 10.2652 9.32665L8.50016 8.22352V5.16732Z" fill="#B2B8BC"/>
</svg>
