<svg width="16" height="17" viewBox="0 0 16 17" fill="none" xmlns="http://www.w3.org/2000/svg">
<g opacity="0.6">
<path d="M8.00008 6.99935C7.17165 6.99935 6.50008 7.67092 6.50008 8.49935C6.50008 9.32778 7.17165 9.99935 8.00008 9.99935C8.82851 9.99935 9.50008 9.32778 9.50008 8.49935C9.50008 7.67092 8.82851 6.99935 8.00008 6.99935Z" fill="white"/>
<path fill-rule="evenodd" clip-rule="evenodd" d="M8.00008 4.16602C6.2549 4.16602 4.68542 4.86694 3.55449 5.73492C2.98829 6.16947 2.5237 6.6521 2.19774 7.1218C1.87799 7.58256 1.66675 8.06704 1.66675 8.49935C1.66675 8.93166 1.87799 9.41614 2.19774 9.8769C2.5237 10.3466 2.98829 10.8292 3.55449 11.2638C4.68542 12.1318 6.2549 12.8327 8.00008 12.8327C9.74526 12.8327 11.3147 12.1318 12.4457 11.2638C13.0119 10.8292 13.4765 10.3466 13.8024 9.8769C14.1222 9.41614 14.3334 8.93166 14.3334 8.49935C14.3334 8.06704 14.1222 7.58256 13.8024 7.1218C13.4765 6.6521 13.0119 6.16947 12.4457 5.73492C11.3147 4.86694 9.74526 4.16602 8.00008 4.16602ZM5.50008 8.49935C5.50008 7.11864 6.61937 5.99935 8.00008 5.99935C9.38079 5.99935 10.5001 7.11864 10.5001 8.49935C10.5001 9.88006 9.38079 10.9993 8.00008 10.9993C6.61937 10.9993 5.50008 9.88006 5.50008 8.49935Z" fill="white"/>
</g>
</svg>
